<?xml version="1.0" standalone="no"?>
<!DOCTYPE svg PUBLIC "-//W3C//DTD SVG 20010904//EN"
 "http://www.w3.org/TR/2001/REC-SVG-20010904/DTD/svg10.dtd">
<svg version="1.0" xmlns="http://www.w3.org/2000/svg"
 width="600.000000pt" height="600.000000pt" viewBox="0 0 600.000000 600.000000"
 preserveAspectRatio="xMidYMid meet">

<g transform="translate(0.000000,600.000000) scale(0.100000,-0.100000)"
fill="#000000" stroke="none">
<path d="M3718 5690 c-41 -12 -128 -64 -175 -105 -112 -96 -248 -332 -323
-563 -81 -247 -115 -486 -108 -753 l5 -177 -36 -28 c-20 -16 -119 -89 -221
-163 -408 -295 -588 -477 -705 -710 -111 -220 -151 -467 -115 -706 37 -244
182 -527 348 -675 195 -175 410 -262 653 -263 l116 -1 8 -140 c4 -78 10 -193
14 -256 19 -354 -64 -581 -246 -677 -83 -44 -149 -56 -265 -51 -88 4 -107 9
-166 39 -50 26 -72 44 -89 74 -12 22 -23 45 -23 50 0 6 36 10 88 10 81 0 93 3
138 30 160 99 188 360 54 496 -55 55 -118 79 -210 79 -196 0 -342 -191 -328
-430 8 -143 93 -269 248 -370 100 -64 181 -85 330 -85 133 0 181 11 285 63 76
38 167 131 209 215 75 150 93 289 76 587 -6 118 -10 255 -8 304 l3 89 100 41
c291 120 445 284 511 545 43 169 33 355 -27 512 -89 231 -290 388 -548 428
-35 6 -65 12 -66 13 -2 2 -6 120 -10 263 l-6 260 72 60 c397 328 605 671 660
1090 26 197 -7 529 -73 735 -25 78 -38 103 -73 138 -44 43 -51 46 -97 32z m92
-508 c138 -138 33 -459 -248 -753 -133 -140 -332 -280 -346 -244 -7 19 2 194
15 285 59 417 278 747 498 749 37 1 49 -4 81 -37z m-679 -1684 c1 -40 3 -145
5 -234 4 -184 13 -166 -101 -200 -76 -23 -222 -120 -277 -185 -181 -209 -217
-466 -99 -709 49 -102 155 -210 224 -230 40 -11 50 -11 57 0 13 21 3 34 -70
99 -97 87 -125 146 -125 266 0 80 4 97 32 158 40 84 124 174 201 215 53 28 74
34 145 46 l27 5 2 -302 c0 -166 2 -320 3 -342 1 -22 3 -125 4 -230 l3 -190
-134 1 c-112 2 -147 6 -221 28 -294 87 -499 287 -573 558 -28 101 -24 278 9
400 86 315 260 508 771 855 50 34 97 62 104 62 8 1 12 -20 13 -71z m271 -825
c199 -104 311 -359 258 -584 -36 -152 -158 -303 -303 -374 -42 -21 -79 -36
-82 -33 -4 4 -8 111 -21 722 l-7 319 43 -7 c24 -4 74 -23 112 -43z"/>
</g>
</svg>
